# xmcd CD database file
#
# Track frame offsets:
#	150
#	17130
#	30887
#	48075
#	64655
#	79767
#	90370
#	110585
#	127037
#	144552
#	157580
#
# Disc length: 2295 seconds
#
# Revision: 0
# Processed by: cddbd v1.5.2PL0 Copyright (c) Steve Scherf et al.
# Submitted via: CDex 1.70beta2
#
DISCID=7a08f50b
DTITLE=Kinsella, Kevin (99) - Cdn. - Cty - Alway Be With You,  Always Be With Me
DYEAR=1999
DGENRE=Country
TTITLE0=Always Be With You
TTITLE1=Honkytonk Bingo Blues
TTITLE2=More Than Your Heart
TTITLE3=Train of Love
TTITLE4=Trucker
TTITLE5=Honkytonk Bound
TTITLE6=Making Her Blue
TTITLE7=Country 
TTITLE8=rhythm and Blues
TTITLE9=Where I Stand Today
TTITLE10=Always Be With Me
EXTD=YEAR: 1999
EXTT0=
EXTT1=
EXTT2=
EXTT3=
EXTT4=
EXTT5=
EXTT6=
EXTT7=
EXTT8=
EXTT9=
EXTT10=
PLAYORDER=
